HIERARCHY
ROOT Body Controller
{
	OFFSET	0.00	0.00	0.00
	CHANNELS 6 Xposition Yposition Zposition Zrotation Xrotation Yrotation
	JOINT Body Controller.001
	{
		OFFSET	 0.000000	-0.036916	-0.004642
		CHANNELS 3 Zrotation Xrotation Yrotation
		JOINT Body Controller.002
		{
			OFFSET	 0.000000	 0.000000	 0.076729
			CHANNELS 3 Zrotation Xrotation Yrotation
			JOINT Body Controller.003
			{
				OFFSET	 0.000000	 0.000000	 0.078516
				CHANNELS 3 Zrotation Xrotation Yrotation
				JOINT Body Controller.004
				{
					OFFSET	 0.000000	 0.000000	 0.042842
					CHANNELS 3 Zrotation Xrotation Yrotation
					End Site
					{
						OFFSET	 0.000000	 0.000000	 0.042842
					}
				}
			}
			JOINT Shoulder.L
			{
				OFFSET	 0.000000	 0.000000	 0.078516
				CHANNELS 3 Zrotation Xrotation Yrotation
				JOINT Upperarm.L
				{
					OFFSET	-0.018201	 0.028733	 0.072586
					CHANNELS 3 Zrotation Xrotation Yrotation
					JOINT Forearm.L
					{
						OFFSET	 0.000000	 0.000000	 0.097523
						CHANNELS 3 Zrotation Xrotation Yrotation
						JOINT Hand.L 1
						{
							OFFSET	 0.000000	 0.000000	 0.104201
							CHANNELS 3 Zrotation Xrotation Yrotation
							End Site
							{
								OFFSET	 0.000000	 0.000000	 0.104201
							}
						}
					}
				}
			}
			JOINT Shoulder.R
			{
				OFFSET	 0.000000	 0.000000	 0.078516
				CHANNELS 3 Zrotation Xrotation Yrotation
				JOINT Upperarm.R
				{
					OFFSET	 0.018201	 0.028733	 0.072586
					CHANNELS 3 Zrotation Xrotation Yrotation
					JOINT Forearm.R
					{
						OFFSET	-0.000000	 0.000000	 0.097523
						CHANNELS 3 Zrotation Xrotation Yrotation
						JOINT Hand.R 1
						{
							OFFSET	 0.000000	 0.000000	 0.104201
							CHANNELS 3 Zrotation Xrotation Yrotation
							End Site
							{
								OFFSET	 0.000000	 0.000000	 0.104201
							}
						}
					}
				}
			}
		}
	}
	JOINT Hip
	{
		OFFSET	 0.000000	 0.025198	-0.007161
		CHANNELS 3 Zrotation Xrotation Yrotation
		JOINT Upperleg.L
		{
			OFFSET	 0.037329	-0.035320	 0.000704
			CHANNELS 3 Zrotation Xrotation Yrotation
			JOINT Foreleg.L
			{
				OFFSET	-0.000000	 0.000000	 0.142509
				CHANNELS 3 Zrotation Xrotation Yrotation
				JOINT Foot.L 1
				{
					OFFSET	 0.000000	 0.000000	 0.128640
					CHANNELS 3 Zrotation Xrotation Yrotation
					End Site
					{
						OFFSET	 0.000000	 0.000000	 0.128640
					}
				}
				JOINT Heel.L
				{
					OFFSET	-0.003987	 0.000323	 0.137245
					CHANNELS 3 Zrotation Xrotation Yrotation
					End Site
					{
						OFFSET	-0.003987	 0.000323	 0.137245
					}
				}
			}
		}
		JOINT Upperleg.R
		{
			OFFSET	 0.037329	 0.035320	 0.000704
			CHANNELS 3 Zrotation Xrotation Yrotation
			JOINT Foreleg.R
			{
				OFFSET	 0.000000	 0.000000	 0.142509
				CHANNELS 3 Zrotation Xrotation Yrotation
				JOINT Foot.R 1
				{
					OFFSET	 0.000000	 0.000000	 0.128640
					CHANNELS 3 Zrotation Xrotation Yrotation
					End Site
					{
						OFFSET	 0.000000	 0.000000	 0.128640
					}
				}
				JOINT Heel.R
				{
					OFFSET	 0.003987	 0.000323	 0.137245
					CHANNELS 3 Zrotation Xrotation Yrotation
					End Site
					{
						OFFSET	 0.003987	 0.000323	 0.137245
					}
				}
			}
		}
	}
}
MOTION
Frames:    15
Frame Time: 0.01666667
 0.000000	 0.000000	 0.366398	-3.965805	-90.000000	-1.401746	-0.000029	-71.966360	 180.000000	-0.000009	 27.986970	 0.000000	 0.000000	 1.202067	 0.000000	 0.000000	-10.243090	-0.000000	 148.635400	-78.341930	-108.121200	-86.236050	 3.854496	-73.514960	-4.739532	-9.568697	-4.841254	-4.940305	 5.141918	-4.585157	-148.635400	-78.341930	 108.121200	 86.236040	 3.854499	 73.514970	 4.740404	-9.578711	 4.847619	 4.940930	 5.151387	 4.578058	-90.000010	-0.000009	-180.000000	 37.574920	-82.140000	 134.298700	 84.004380	-3.855535	-8.647620	 82.764660	 69.238060	 7.549249	-88.575780	 30.995550	-2.561642	 141.542800	-82.057350	-134.222500	-84.163100	-2.044792	 9.551385	-79.686550	 69.883230	-10.446800	 88.575770	 30.995540	 2.561643
 0.000000	 0.000000	 0.366398	-3.965805	-90.000000	-1.401746	-0.000029	-71.966360	 180.000000	-0.000009	 27.986970	 0.000000	 0.000000	 1.202067	 0.000000	 0.000000	-10.243090	-0.000000	 148.635400	-78.341930	-108.121200	-86.236050	 3.854496	-73.514960	-4.739676	-9.570280	-4.842047	-4.940380	 5.143436	-4.584252	-148.635400	-78.341930	 108.121200	 86.236040	 3.854499	 73.514970	 4.740564	-9.580505	 4.848532	 4.941018	 5.153109	 4.577017	-90.000010	-0.000009	-180.000000	 20.728320	-83.639400	 116.054400	 84.197620	-2.316545	-5.474925	 82.641360	 68.765580	 7.965366	-88.575780	 30.995550	-2.561642	 157.308900	-83.530100	-117.367900	-84.265060	-0.957770	 5.940877	-80.683200	 68.939890	-10.019730	 88.575770	 30.995540	 2.561643
 0.000000	 0.000000	 0.366398	-3.965805	-90.000000	-1.401746	-0.000029	-71.966360	 180.000000	-0.000009	 27.986970	 0.000000	 0.000000	 1.202067	 0.000000	 0.000000	-10.243090	-0.000000	 148.635400	-78.341930	-108.121200	-86.209600	 3.862280	-73.590130	-4.727725	-9.603887	-4.770242	-4.940386	 5.143567	-4.584181	-148.635400	-78.341930	 108.121200	 86.236040	 3.854499	 73.514970	 4.740565	-9.580629	 4.848596	 4.941034	 5.153227	 4.576942	-90.000010	-0.000009	-180.000000	 24.106890	-83.435410	 119.660800	 84.166310	-2.624497	-6.168626	 82.780270	 69.011940	 7.785010	-88.575780	 30.995550	-2.561642	 156.338500	-83.470000	-118.417300	-84.262890	-1.007628	 6.029382	-80.556530	 68.880550	-10.089460	 88.575770	 30.995540	 2.561643
 0.000000	 0.000000	 0.366398	-3.965805	-90.000000	-1.401746	-0.000029	-71.966360	 180.000000	-0.000009	 27.986970	 0.000000	 0.000000	 1.202067	 0.000000	 0.000000	-10.243090	-0.000000	 148.635400	-78.341930	-108.121200	-86.236050	 3.854496	-73.514960	-4.739700	-9.570570	-4.842182	-4.940394	 5.143713	-4.584095	-148.635400	-78.341930	 108.121200	 86.236040	 3.854499	 73.514970	 4.740579	-9.580800	 4.848588	 4.941034	 5.153398	 4.576936	-90.000010	-0.000009	-180.000000	 25.841350	-83.315490	 121.522700	 84.150880	-2.763977	-6.465872	 82.786960	 69.062530	 7.752430	-88.575780	 30.995550	-2.561642	 153.033100	-83.242160	-121.866200	-84.248020	-1.176319	 6.837616	-80.451610	 69.222580	-10.141220	 88.575770	 30.995540	 2.561643
 0.000000	 0.000000	 0.366398	-3.965805	-90.000000	-1.401746	-0.000029	-71.966360	 180.000000	-0.000009	 27.986970	 0.000000	 0.000000	 1.202067	 0.000000	 0.000000	-10.243090	-0.000000	 148.635400	-78.341930	-108.121200	-86.236050	 3.854496	-73.514960	-4.739707	-9.570615	-4.842191	-4.940392	 5.143759	-4.584083	-148.635400	-78.341930	 108.121200	 86.236040	 3.854499	 73.514970	 4.740590	-9.580900	 4.848661	 4.941041	 5.153491	 4.576857	-90.000010	-0.000009	-180.000000	 27.300250	-83.205750	 123.092900	 84.136710	-2.886425	-6.724984	 82.794850	 69.106700	 7.721836	-88.575780	 30.995550	-2.561642	 151.743100	-83.141760	-123.236700	-84.242030	-1.251594	 7.100436	-80.365070	 69.285550	-10.184200	 88.575770	 30.995540	 2.561643
 0.000000	 0.000000	 0.366398	-3.965805	-90.000000	-1.401746	-0.000029	-71.966360	 180.000000	-0.000009	 27.986970	 0.000000	 0.000000	 1.202067	 0.000000	 0.000000	-10.243090	-0.000000	 148.635400	-78.341930	-108.121200	-86.236050	 3.854496	-73.514960	-4.739720	-9.570754	-4.842278	-4.940399	 5.143891	-4.583986	-148.635400	-78.341930	 108.121200	 86.236040	 3.854499	 73.514970	 4.740600	-9.580998	 4.848807	 4.941052	 5.153577	 4.576705	-90.000010	-0.000009	-180.000000	 28.950170	-83.071110	 124.873800	 84.119300	-3.030778	-7.027911	 82.805510	 69.157190	 7.684329	-88.575780	 30.995550	-2.561642	 150.259900	-83.017790	-124.816400	-84.234290	-1.343687	 7.414658	-80.266300	 69.362360	-10.231280	 88.575770	 30.995540	 2.561643
 0.000000	 0.000000	 0.366398	-3.965805	-90.000000	-1.401746	-0.000029	-71.966360	 180.000000	-0.000009	 27.986970	 0.000000	 0.000000	 1.202067	 0.000000	 0.000000	-10.243090	-0.000000	 148.635400	-78.341930	-108.121200	-86.236050	 3.854496	-73.514960	-4.739727	-9.570891	-4.842339	-4.940410	 5.144022	-4.583915	-148.635400	-78.341930	 108.121200	 86.236040	 3.854499	 73.514970	 4.740613	-9.581160	 4.848793	 4.941053	 5.153739	 4.576708	-90.000010	-0.000009	-180.000000	 32.818820	-82.705830	 129.074100	 84.072180	-3.393376	-7.773294	 82.829540	 69.265010	 7.590913	-88.575780	 30.995550	-2.561642	 146.635800	-82.671500	-128.696900	-84.210940	-1.597399	 8.240870	-80.027080	 69.568610	-10.334760	 88.575770	 30.995540	 2.561643
 0.000000	 0.000000	 0.366398	-3.965805	-90.000000	-1.401746	-0.000029	-71.966360	 180.000000	-0.000009	 27.986970	 0.000000	 0.000000	 1.202067	 0.000000	 0.000000	-10.243090	-0.000000	 148.635400	-78.341930	-108.121200	-86.236050	 3.854496	-73.514960	-4.739739	-9.571026	-4.842411	-4.940415	 5.144150	-4.583832	-148.635400	-78.341930	 108.121200	 86.236040	 3.854499	 73.514970	 4.740621	-9.581290	 4.848855	 4.941063	 5.153865	 4.576635	-90.000010	-0.000009	-180.000000	 34.421450	-82.531180	 130.826100	 84.050030	-3.551589	-8.088098	 82.831090	 69.293100	 7.557019	-88.575780	 30.995550	-2.561642	 145.040700	-82.496980	-130.416600	-84.198180	-1.724409	 8.632534	-79.921840	 69.666250	-10.374480	 88.575770	 30.995540	 2.561643
 0.000000	 0.000000	 0.366398	-3.965805	-90.000000	-1.401746	-0.000029	-71.966360	 180.000000	-0.000009	 27.986970	 0.000000	 0.000000	 1.202067	 0.000000	 0.000000	-10.243090	-0.000000	 148.635400	-78.341930	-108.121200	-86.209550	 3.862301	-73.590300	-4.727752	-9.604716	-4.770411	-4.940422	 5.144299	-4.583783	-148.635400	-78.341930	 108.121200	 86.236040	 3.854499	 73.514970	 4.740628	-9.581386	 4.849003	 4.941078	 5.153947	 4.576481	-90.000010	-0.000009	-180.000000	 35.461030	-82.409610	 131.966900	 84.035000	-3.654887	-8.287759	 82.824260	 69.298270	 7.541300	-88.575780	 30.995550	-2.561642	 143.957600	-82.369690	-131.589500	-84.188430	-1.816941	 8.908422	-79.849930	 69.733800	-10.399180	 88.575770	 30.995540	 2.561643
 0.000000	 0.000000	 0.366398	-3.965805	-90.000000	-1.401746	-0.000029	-71.966360	 180.000000	-0.000009	 27.986970	 0.000000	 0.000000	 1.202067	 0.000000	 0.000000	-10.243090	-0.000000	 148.635400	-78.341930	-108.121200	-86.209540	 3.862300	-73.590300	-4.727764	-9.604850	-4.770487	-4.940429	 5.144421	-4.583699	-148.635400	-78.341930	 108.121200	 86.236040	 3.854499	 73.514970	 4.740638	-9.581508	 4.849063	 4.941084	 5.154065	 4.576412	-90.000010	-0.000009	-180.000000	 37.246130	-82.184030	 133.934800	 84.009060	-3.825531	-8.597507	 82.779170	 69.255690	 7.543386	-88.575780	 30.995550	-2.561642	 141.945500	-82.112380	-133.781500	-84.167720	-2.004432	 9.440524	-79.713700	 69.857620	-10.439830	 88.575770	 30.995540	 2.561643
 0.000000	 0.000000	 0.366398	-3.965805	-90.000000	-1.401746	-0.000029	-71.966360	 180.000000	-0.000009	 27.986970	 0.000000	 0.000000	 1.202067	 0.000000	 0.000000	-10.243090	-0.000000	 148.635400	-78.341930	-108.121200	-86.236050	 3.854496	-73.514960	-4.739774	-9.571435	-4.842592	-4.940436	 5.144545	-4.583622	-148.635400	-78.341930	 108.121200	 86.236040	 3.854499	 73.514970	 4.740656	-9.581668	 4.849071	 4.941082	 5.154225	 4.576393	-90.000010	-0.000009	-180.000000	 37.564350	-82.141400	 134.286800	 84.004690	-3.853182	-8.642832	 82.762620	 69.235340	 7.551448	-88.575780	 30.995550	-2.561642	 141.553600	-82.058810	-134.210800	-84.163240	-2.043579	 9.546606	-79.686490	 69.880580	-10.446910	 88.575770	 30.995540	 2.561643
 0.000000	 0.000000	 0.366398	-3.965805	-90.000000	-1.401746	-0.000029	-71.966360	 180.000000	-0.000009	 27.986970	 0.000000	 0.000000	 1.202067	 0.000000	 0.000000	-10.243090	-0.000000	 148.635400	-78.341930	-108.121200	-86.236050	 3.854496	-73.514960	-4.739799	-9.571718	-4.842734	-4.940450	 5.144816	-4.583459	-148.635400	-78.341930	 108.121200	 86.236040	 3.854499	 73.514970	 4.740673	-9.581925	 4.849198	 4.941099	 5.154471	 4.576245	-90.000010	-0.000009	-180.000000	 25.300960	-83.354000	 120.941900	 84.155850	-2.719516	-6.371384	 82.784130	 69.045850	 7.763413	-88.575780	 30.995550	-2.561642	 153.508300	-83.277430	-121.362200	-84.250100	-1.149587	 6.742619	-80.483410	 69.199720	-10.125030	 88.575770	 30.995540	 2.561643
 0.000000	 0.000000	 0.366398	-3.965805	-90.000000	-1.401746	-0.000029	-71.966360	 180.000000	-0.000009	 27.986970	 0.000000	 0.000000	 1.202067	 0.000000	 0.000000	-10.243090	-0.000000	 148.635400	-78.341930	-108.121200	-86.236050	 3.854496	-73.514960	-4.739816	-9.571856	-4.842821	-4.940452	 5.144946	-4.583364	-148.635400	-78.341930	 108.121200	 86.236040	 3.854499	 73.514970	 4.740689	-9.582046	 4.849276	 4.941103	 5.154586	 4.576160	-90.000010	-0.000009	-180.000000	 27.621480	-83.180420	 123.439100	 84.133480	-2.913742	-6.782524	 82.796330	 69.115860	 7.715209	-88.575780	 30.995550	-2.561642	 151.457700	-83.118610	-123.540400	-84.240600	-1.268809	 7.159379	-80.345760	 69.299430	-10.193550	 88.575770	 30.995540	 2.561643
 0.000000	 0.000000	 0.366398	-3.965805	-90.000000	-1.401746	-0.000029	-71.966360	 180.000000	-0.000009	 27.986970	 0.000000	 0.000000	 1.202067	 0.000000	 0.000000	-10.243090	-0.000000	 148.635400	-78.341930	-108.121200	-86.209550	 3.862301	-73.590320	-4.727818	-9.605533	-4.770820	-4.940468	 5.145077	-4.583301	-148.635400	-78.341930	 108.121200	 86.236040	 3.854499	 73.514970	 4.740697	-9.582186	 4.849345	 4.941113	 5.154718	 4.576079	-90.000010	-0.000009	-180.000000	 29.809530	-82.996240	 125.803600	 84.109660	-3.108170	-7.189093	 82.810940	 69.182640	 7.664299	-88.575780	 30.995550	-2.561642	 149.476000	-82.948320	-125.653100	-84.229840	-1.394850	 7.585570	-80.214130	 69.404180	-10.255180	 88.575770	 30.995540	 2.561643
 0.000000	 0.000000	 0.366398	-3.965805	-90.000000	-1.401746	-0.000029	-71.966360	 180.000000	-0.000009	 27.986970	 0.000000	 0.000000	 1.202067	 0.000000	 0.000000	-10.243090	-0.000000	 148.635400	-78.341930	-108.121200	-86.236050	 3.854496	-73.514960	-4.739837	-9.572137	-4.842953	-4.940470	 5.145216	-4.583211	-148.635400	-78.341930	 108.121200	 86.236040	 3.854499	 73.514970	 4.740705	-9.582306	 4.849413	 4.941123	 5.154833	 4.576003	-90.000010	-0.000009	-180.000000	 31.981530	-82.791280	 128.161700	 84.083190	-3.311900	-7.608124	 82.825070	 69.243910	 7.611281	-88.575780	 30.995550	-2.561642	 147.443600	-82.754460	-127.829100	-84.216780	-1.536883	 8.048622	-80.079960	 69.519900	-10.313370	 88.575770	 30.995540	 2.561643
